<svg width="15" height="18" viewBox="0 0 15 18" fill="none" xmlns="http://www.w3.org/2000/svg">
<path d="M10.4113 3.32155C10.4113 3.32155 10.4113 2.13826 10.4113 1.604C10.4113 1.24722 10.1628 1.00156 9.80519 1C9.63578 1 6.58817 1 5.23365 1.00234C4.89535 0.990631 4.59322 1.2415 4.60909 1.59359C4.60753 2.16611 4.60909 3.32233 4.60909 3.32233" stroke="#292929" stroke-width="1.5" stroke-miterlimit="10" stroke-linecap="round"/>
<path d="M2.2793 5.62207C2.28971 5.65356 2.28164 5.69025 2.28164 5.72434V16.0106C2.28164 16.3172 2.46901 16.5397 2.77088 16.5896C2.82177 16.5963 2.87312 16.5989 2.92442 16.5972C5.97523 16.5972 9.02596 16.5986 12.0766 16.6014C12.4623 16.6014 12.7389 16.352 12.7381 15.9726C12.731 12.5441 12.7293 9.11545 12.7332 5.68661" stroke="#292929" stroke-width="1.5" stroke-miterlimit="10" stroke-linecap="round"/>
<path d="M7.50869 14.1698C7.50452 13.9039 7.50869 13.6377 7.50869 13.3717V10.0888C7.50869 8.74673 7.50869 7.40461 7.50869 6.0625" stroke="#292929" stroke-width="1.5" stroke-miterlimit="10" stroke-linecap="round"/>
<path d="M5.19808 12.991C5.19625 12.3776 5.19808 11.764 5.19808 11.1504V10.0894C5.19808 9.13121 5.19808 8.17303 5.19808 7.21484" stroke="#292929" stroke-width="1.5" stroke-miterlimit="10" stroke-linecap="round"/>
<path d="M9.81836 13.0278C9.81836 13.0099 9.81836 12.9917 9.81836 12.9734C9.81836 11.0573 9.81836 9.14097 9.81836 7.22461" stroke="#292929" stroke-width="1.5" stroke-miterlimit="10" stroke-linecap="round"/>
<path d="M1.00879 3.32129H14.0088" stroke="#292929" stroke-width="1.5" stroke-miterlimit="10" stroke-linecap="round"/>
</svg>
