<svg width="25" height="20" viewBox="0 0 25 20" fill="none" xmlns="http://www.w3.org/2000/svg">
<path d="M12.9019 18.9999V8.94112" stroke="white" stroke-width="1.5" stroke-linecap="round" stroke-linejoin="round"/>
<path d="M16.9114 12.6071L12.9026 8.86517L8.89355 12.6071" stroke="white" stroke-width="1.5" stroke-linecap="round" stroke-linejoin="round"/>
<path d="M5.95913 6.59785H5.35497C2.95991 6.59785 1 8.55752 1 10.9528V11.275C1 13.67 2.95966 15.6299 5.35497 15.6299H8.56185" stroke="white" stroke-width="1.5" stroke-linecap="round" stroke-linejoin="round"/>
<path d="M17.3819 5.15202C16.6534 2.75621 14.4182 1 11.7926 1C8.66208 1 6.08662 3.49666 5.95801 6.59723" stroke="white" stroke-width="1.5" stroke-linecap="round" stroke-linejoin="round"/>
<path d="M8.19868 7.08901C7.51796 6.6883 5.95801 6.59785 5.95801 6.59785" stroke="white" stroke-width="1.5" stroke-linecap="round" stroke-linejoin="round"/>
<path d="M18.2806 15.6289H18.7244C21.627 15.6289 24.0018 13.2541 24.0018 10.3516C24.0018 7.44899 21.627 5.07425 18.7244 5.07425H18.2806C17.9748 5.07425 17.675 5.10101 17.3828 5.15157C17.5456 5.68658 17.6333 6.25332 17.6333 6.83963V7.07629" stroke="white" stroke-width="1.5" stroke-linecap="round" stroke-linejoin="round"/>
</svg>
